<svg version="1.0" xmlns="http://www.w3.org/2000/svg" width="600.000000pt" height="600.000000pt" viewBox="0 0 600.000000 600.000000" preserveAspectRatio="xMidYMid meet" style="width: 387.329px; height: auto;"> <g transform="translate(0.000000,600.000000) scale(0.100000,-0.100000)" fill="#000000" stroke="none"> <path d="M2799 4916 c-2 -2 -33 -7 -69 -10 -36 -3 -76 -8 -90 -11 -14 -2 -65 -12 -115 -21 -49 -9 -116 -25 -147 -35 -32 -11 -63 -19 -71 -19 -7 0 -31 -8 -53 -19 -21 -10 -55 -22 -74 -26 -38 -8 -146 -60 -285 -136 -43 -23 -118 -79 -123 -91 -2 -5 -10 -8 -18 -8 -8 0 -14 -4 -14 -10 0 -5 -6 -10 -13 -10 -8 0 -27 -13 -43 -30 -16 -16 -34 -30 -40 -30 -7 0 -30 -20 -52 -45 -23 -25 -45 -47 -49 -48 -12 -3 -133 -139 -133 -149 0 -5 -5 -6 -10 -3 -6 3 -10 1 -10 -6 0 -6 -36 -59 -80 -117 -44 -58 -80 -111 -80 -119 0 -7 -4 -13 -9 -13 -5 0 -12 -11 -15 -24 -3 -14 -12 -31 -19 -38 -6 -7 -17 -24 -24 -38 -6 -14 -30 -64 -52 -111 -23 -48 -41 -93 -41 -101 0 -8 -4 -18 -9 -23 -4 -6 -14 -32 -20 -60 -7 -27 -21 -72 -31 -100 -17 -43 -27 -94 -55 -255 -17 -100 -27 -293 -22 -435 6 -160 38 -417 56 -439 7 -9 17 -42 26 -86 11 -56 30 -120 41 -137 8 -12 14 -31 14 -41 0 -10 4 -22 8 -28 5 -5 17 -29 26 -54 36 -92 154 -293 216 -367 5 -7 10 -16 10 -22 0 -5 7 -11 15 -15 8 -3 15 -12 15 -20 0 -9 38 -54 85 -101 47 -47 85 -90 85 -96 0 -5 4 -9 9 -9 5 0 16 -6 23 -13 7 -6 38 -32 67 -57 30 -25 65 -54 77 -65 49 -43 92 -75 102 -75 5 0 15 -7 22 -15 7 -9 15 -13 18 -11 3 3 18 -4 34 -15 36 -26 190 -103 201 -101 4 1 7 -3 7 -8 0 -6 9 -10 19 -10 11 0 21 -4 23 -8 2 -6 140 -56 183 -67 6 -1 23 -7 38 -13 15 -7 51 -16 80 -21 29 -6 72 -14 97 -19 25 -6 68 -13 95 -16 28 -4 82 -11 120 -17 46 -7 343 -9 855 -7 725 3 787 4 815 20 17 10 37 18 46 18 20 0 95 36 119 58 11 9 32 28 47 42 15 14 31 24 35 23 5 -2 8 3 8 11 0 7 11 24 23 37 51 52 100 169 108 254 2 28 4 399 4 825 0 774 0 775 -23 858 -32 115 -48 143 -140 238 -63 65 -171 122 -272 143 -37 8 -1228 5 -1278 -3 -23 -4 -61 -14 -84 -22 -47 -16 -154 -86 -181 -118 -10 -11 -15 -15 -11 -7 5 9 3 12 -4 7 -7 -4 -12 -13 -12 -21 0 -7 -6 -20 -13 -27 -7 -7 -27 -37 -45 -66 -58 -94 -77 -226 -52 -362 10 -55 38 -144 40 -125 0 6 7 -3 15 -20 7 -16 27 -45 44 -64 17 -18 31 -37 31 -40 0 -4 15 -15 33 -26 17 -10 37 -23 42 -27 100 -81 181 -96 545 -97 266 -2 296 -3 308 -19 18 -24 13 -435 -6 -454 -9 -9 -112 -12 -460 -10 -246 1 -472 6 -502 11 -30 5 -58 7 -62 4 -5 -2 -8 -1 -8 4 0 4 -13 9 -30 10 -16 1 -51 11 -77 22 -26 10 -63 25 -82 32 -18 7 -49 23 -68 36 -19 13 -38 21 -43 18 -4 -3 -10 -2 -12 3 -1 4 -25 23 -53 42 -60 42 -181 163 -201 202 -8 15 -19 28 -23 28 -5 0 -12 13 -16 30 -4 16 -11 30 -16 30 -5 0 -9 6 -9 14 0 8 -3 16 -7 18 -13 5 -43 68 -43 88 0 10 -4 20 -9 22 -22 7 -70 238 -76 366 -9 172 11 297 68 432 5 14 12 36 14 49 2 13 11 30 19 38 7 8 14 23 14 34 0 11 5 17 10 14 6 -3 10 1 10 9 0 8 6 21 13 28 8 7 26 32 40 55 14 23 49 65 76 95 28 29 51 56 51 61 0 4 4 7 10 7 10 0 38 21 76 58 13 13 28 21 33 18 4 -3 16 3 26 14 10 11 24 20 32 20 7 0 13 5 13 11 0 6 7 9 15 6 8 -4 17 -2 20 3 4 6 15 10 26 10 10 0 19 4 19 8 0 8 81 37 165 58 74 20 230 24 910 27 704 2 775 4 823 20 94 32 208 99 218 130 3 9 12 17 20 17 8 0 14 4 14 8 0 5 8 17 18 28 36 42 70 110 88 177 26 100 8 307 -32 358 -6 8 -17 29 -25 47 -8 17 -17 32 -21 32 -5 0 -8 4 -8 9 0 11 -77 91 -88 91 -4 0 -19 11 -34 25 -15 14 -29 25 -30 26 -19 0 -48 14 -48 22 0 6 -3 8 -6 4 -3 -3 -27 4 -52 16 -47 22 -50 22 -842 25 -438 2 -798 1 -801 -2z m1569 -42 c78 -8 185 -66 258 -138 229 -229 175 -606 -108 -756 -114 -61 -95 -60 -893 -60 -770 0 -834 -3 -995 -46 -491 -132 -789 -631 -706 -1184 73 -484 413 -815 891 -870 50 -5 291 -10 536 -10 445 0 445 0 445 280 -1 280 -1 280 -342 280 -374 0 -393 2 -507 63 -67 35 -155 125 -187 191 -69 143 -67 304 6 448 54 107 194 210 322 237 35 7 253 11 650 11 498 0 607 -2 655 -15 164 -43 290 -157 348 -315 24 -65 24 -65 24 -900 0 -933 4 -879 -72 -998 -65 -103 -150 -169 -273 -214 -65 -23 -65 -23 -760 -26 -727 -4 -885 2 -1094 38 -333 58 -654 207 -911 423 -409 343 -646 825 -685 1398 -49 726 246 1394 793 1793 206 150 409 245 657 310 173 44 252 57 425 65 161 8 1443 4 1523 -5z" class=""></path> </g> </svg>